HIERARCHY
ROOT Hips
{
	OFFSET 0.00000 0.00000 0.00000
	CHANNELS 6 Xposition Yposition Zposition Zrotation Yrotation Xrotation 
	JOINT LHipJoint
	{
		OFFSET 0 0 0
		CHANNELS 3 Zrotation Yrotation Xrotation
		JOINT LeftUpLeg
		{
			OFFSET 1.28366 -1.58472 0.87544
			CHANNELS 3 Zrotation Yrotation Xrotation
			JOINT LeftLeg
			{
				OFFSET 2.18587 -6.00562 0.00000
				CHANNELS 3 Zrotation Yrotation Xrotation
				JOINT LeftFoot
				{
					OFFSET 2.39085 -6.56880 0.00000
					CHANNELS 3 Zrotation Yrotation Xrotation
					JOINT LeftToeBase
					{
						OFFSET 0.12003 -0.32979 2.03101
						CHANNELS 3 Zrotation Yrotation Xrotation
						End Site
						{
							OFFSET 0.00000 -0.00000 1.04074
						}
					}
				}
			}
		}
	}
	JOINT RHipJoint
	{
		OFFSET 0 0 0
		CHANNELS 3 Zrotation Yrotation Xrotation
		JOINT RightUpLeg
		{
			OFFSET -1.21795 -1.58472 0.87544
			CHANNELS 3 Zrotation Yrotation Xrotation
			JOINT RightLeg
			{
				OFFSET -2.22714 -6.11902 0.00000
				CHANNELS 3 Zrotation Yrotation Xrotation
				JOINT RightFoot
				{
					OFFSET -2.40306 -6.60235 0.00000
					CHANNELS 3 Zrotation Yrotation Xrotation
					JOINT RightToeBase
					{
						OFFSET -0.15519 -0.42640 1.91430
						CHANNELS 3 Zrotation Yrotation Xrotation
						End Site
						{
							OFFSET -0.00000 -0.00000 0.99082
						}
					}
				}
			}
		}
	}
	JOINT LowerBack
	{
		OFFSET 0 0 0
		CHANNELS 3 Zrotation Yrotation Xrotation
		JOINT Spine
		{
			OFFSET 0.01180 1.76430 -0.06387
			CHANNELS 3 Zrotation Yrotation Xrotation
			JOINT Spine1
			{
				OFFSET -0.00388 1.74651 0.09536
				CHANNELS 3 Zrotation Yrotation Xrotation
				JOINT Neck
				{
					OFFSET 0 0 0
					CHANNELS 3 Zrotation Yrotation Xrotation
					JOINT Neck1
					{
						OFFSET 0.04111 1.46174 0.14397
						CHANNELS 3 Zrotation Yrotation Xrotation
						JOINT Head
						{
							OFFSET 0.00502 1.44580 -0.31711
							CHANNELS 3 Zrotation Yrotation Xrotation
							End Site
							{
								OFFSET -0.00395 1.49251 -0.12327
							}
						}
					}
				}
				JOINT LeftShoulder
				{
					OFFSET 0 0 0
					CHANNELS 3 Zrotation Yrotation Xrotation
					JOINT LeftArm
					{
						OFFSET 2.70917 1.34870 -0.15417
						CHANNELS 3 Zrotation Yrotation Xrotation
						JOINT LeftForeArm
						{
							OFFSET 4.46610 -0.00000 -0.00000
							CHANNELS 3 Zrotation Yrotation Xrotation
							JOINT LeftHand
							{
								OFFSET 3.41414 -0.00000 0.00000
								CHANNELS 3 Zrotation Yrotation Xrotation
								JOINT LeftFingerBase
								{
									OFFSET 0 0 0
									CHANNELS 3 Zrotation Yrotation Xrotation
									JOINT LeftHandIndex1
									{
										OFFSET 0.32830 -0.00000 0.00000
										CHANNELS 3 Zrotation Yrotation Xrotation
										End Site
										{
											OFFSET 0.26468 -0.00000 0.00000
										}
									}
								}
								JOINT LThumb
								{
									OFFSET 0 0 0
									CHANNELS 3 Zrotation Yrotation Xrotation
									End Site
									{
										OFFSET 0.26872 -0.00000 0.26872
									}
								}
							}
						}
					}
				}
				JOINT RightShoulder
				{
					OFFSET 0 0 0
					CHANNELS 3 Zrotation Yrotation Xrotation
					JOINT RightArm
					{
						OFFSET -3.06316 1.13725 -0.10883
						CHANNELS 3 Zrotation Yrotation Xrotation
						JOINT RightForeArm
						{
							OFFSET -4.40431 -0.00000 0.00000
							CHANNELS 3 Zrotation Yrotation Xrotation
							JOINT RightHand
							{
								OFFSET -3.04688 -0.00000 0.00000
								CHANNELS 3 Zrotation Yrotation Xrotation
								JOINT RightFingerBase
								{
									OFFSET 0 0 0
									CHANNELS 3 Zrotation Yrotation Xrotation
									JOINT RightHandIndex1
									{
										OFFSET -0.50049 -0.00000 0.00000
										CHANNELS 3 Zrotation Yrotation Xrotation
										End Site
										{
											OFFSET -0.40351 -0.00000 0.00000
										}
									}
								}
								JOINT RThumb
								{
									OFFSET 0 0 0
									CHANNELS 3 Zrotation Yrotation Xrotation
									End Site
									{
										OFFSET -0.40967 -0.00000 0.40967
									}
								}
							}
						}
					}
				}
			}
		}
	}
}
MOTION
Frames: 13
Frame Time: .0083333
40.3108 13.5187 16.5668 368.0440 -55.4578 363.3430 0.0000 0.0000 0.0000 -5.9700 2.8217 -21.4959 6.2637 14.6791 46.0309 2.8098 -12.0961 -30.2576 3.7847 -11.8682 -35.2674 0.0000 0.0000 0.0000 -6.2511 -5.8023 -53.7933 -27.7466 -18.4957 113.2102 -1.3683 4.0539 -21.1557 -0.0906 1.9411 -5.3428 -2.1961 6.8995 9.2653 -3.7420 8.5705 -6.0151 -4.4533 4.0788 -11.4307 -1.1848 -5.7982 -16.0137 1.6320 -7.7180 8.4640 0.0001 -3.6923 5.2475 0.0000 -0.0000 0.0000 -56.0276 -6.2949 23.2585 103.3215 -59.3187 -71.5104 -0.0000 0.0000 -45.1239 80.2575 50.3212 77.4239 -7.1250 0.0000 -0.0000 157.4845 -67.4225 -167.6030 0.0000 -0.0000 0.0000 49.8776 8.3549 56.1062 -122.2213 55.6884 -87.5005 0.0000 0.0000 2.9348 -63.3291 36.2231 -49.6344 7.1250 -0.0000 -0.0000 -14.8736 27.0164 -20.4647
40.1378 13.5961 16.5154 367.8760 -55.3068 363.4300 0.0000 0.0000 0.0000 -5.5748 3.0330 -19.6134 5.5816 14.0102 43.2784 2.6187 -11.4095 -29.1667 3.9535 -12.0982 -36.0804 0.0000 0.0000 0.0000 -7.0894 -5.4586 -54.1120 -27.3669 -18.6457 112.0180 -1.2256 4.4935 -19.9230 -0.1032 2.0720 -5.7046 -2.0765 6.6748 9.2984 -3.6081 8.2948 -6.1249 -4.3400 3.9384 -11.5888 -1.5423 -6.3379 -15.6517 2.1226 -8.4242 8.1707 0.1577 -4.0206 5.1429 0.0000 0.0000 0.0000 -54.4230 -5.7559 24.0478 106.8875 -58.8945 -74.5707 -0.0000 0.0000 -42.6671 79.6670 49.4978 76.5161 -7.1250 0.0000 -0.0000 155.4890 -68.0094 -166.1299 0.0000 0.0000 0.0000 49.6296 8.0783 53.5560 -120.9682 56.0464 -86.4632 0.0000 0.0000 0.4373 -63.0947 35.7276 -49.0089 7.1250 -0.0000 -0.0000 -14.9692 26.3273 -20.5294
39.9567 13.6828 16.4631 367.6150 -55.1770 363.5920 0.0000 0.0000 0.0000 -5.1542 3.1389 -17.5424 4.8843 13.2523 40.3204 2.3988 -10.3861 -27.8636 4.1401 -12.3445 -36.9617 0.0000 0.0000 0.0000 -7.7388 -5.0390 -54.2743 -26.8728 -18.8276 110.4798 -1.0737 4.8068 -18.5733 -0.1113 2.1514 -5.9241 -1.8815 6.4223 9.2784 -3.4594 7.9960 -6.2576 -4.2405 3.7828 -11.7327 -1.8896 -6.8670 -15.3027 2.6096 -9.1212 7.9654 0.3114 -4.3446 5.0736 0.0000 0.0000 0.0000 -52.7156 -5.1570 24.9741 110.3605 -58.3742 -77.5364 -0.0000 0.0000 -40.0066 78.9693 48.5169 75.4145 -7.1250 0.0000 -0.0000 152.9517 -68.7129 -164.1931 0.0000 0.0000 0.0000 49.2929 7.9748 50.8837 -119.1778 56.5251 -84.9739 0.0000 -0.0000 -2.3377 -62.5584 35.1703 -47.9653 7.1250 -0.0000 -0.0000 -14.9348 25.3318 -20.3693
39.7676 13.7777 16.4094 367.2650 -55.0593 363.8350 0.0000 0.0000 0.0000 -4.7051 3.1406 -15.2993 4.1826 12.3995 37.1603 2.1359 -9.1138 -26.2458 4.3094 -12.5611 -37.7469 0.0000 0.0000 0.0000 -8.2051 -4.5611 -54.2860 -26.2656 -19.0315 108.6083 -0.9189 4.9738 -17.1302 -0.1128 2.1658 -5.9640 -1.6274 6.1490 9.1982 -3.2929 7.6814 -6.4128 -4.1443 3.6163 -11.8613 -2.2342 -7.3869 -14.9753 3.0881 -9.8097 7.8496 0.4600 -4.6645 5.0410 -0.0000 -0.0000 0.0000 -50.9227 -4.5247 26.0500 113.6679 -57.7738 -80.3438 -0.0000 0.0000 -37.0906 78.1874 47.3625 74.1300 -7.1250 0.0000 -0.0000 149.7387 -69.5157 -161.6621 -0.0000 -0.0000 0.0000 48.8602 8.0427 48.1028 -116.7735 57.1102 -82.9616 0.0000 -0.0000 -5.4218 -61.6252 34.6776 -46.4889 7.1250 -0.0000 -0.0000 -14.6691 24.0974 -19.8455
39.5741 13.8677 16.3526 366.8480 -54.9365 364.1490 0.0000 0.0000 0.0000 -4.2158 3.0273 -12.9544 3.5045 11.4701 33.8823 1.8274 -7.7101 -24.2448 4.4209 -12.7004 -38.2569 0.0000 0.0000 0.0000 -8.5661 -4.0730 -54.2342 -25.5791 -19.2368 106.5142 -0.7664 5.0322 -15.6087 -0.1065 2.1039 -5.7929 -1.3748 5.8591 9.0073 -3.0754 7.3527 -6.5617 -3.9747 3.4484 -11.9242 -2.6019 -7.8918 -14.6755 3.5361 -10.4737 7.7911 0.6021 -4.9749 5.0353 0.0000 -0.0000 0.0000 -49.1221 -3.9106 27.2572 116.7480 -57.1160 -82.9402 -0.0000 0.0000 -33.8922 77.2698 46.0085 72.5672 -7.1250 0.0000 -0.0000 145.5699 -70.4518 -158.2467 0.0000 -0.0000 0.0000 48.2553 8.3377 45.2173 -113.6222 57.7828 -80.3051 0.0000 -0.0000 -8.7496 -60.3300 34.2331 -44.6390 7.1250 -0.0000 -0.0000 -14.1971 22.6548 -19.0019
39.3704 13.9733 16.2940 366.3890 -54.7966 364.5210 0.0000 0.0000 0.0000 -3.7177 2.8196 -10.4869 2.8556 10.4576 30.4716 1.4821 -6.2490 -21.8236 4.4434 -12.7281 -38.3590 0.0000 0.0000 0.0000 -8.7428 -3.5592 -53.9601 -24.7631 -19.4471 104.0506 -0.6233 4.8978 -14.0579 -0.0932 1.9690 -5.4199 -1.1379 5.5527 8.7305 -2.8143 7.0047 -6.7155 -3.7371 3.2760 -11.9492 -2.9805 -8.3796 -14.4143 3.9451 -11.1127 7.8030 0.7323 -5.2748 5.0608 0.0000 -0.0000 0.0000 -47.3096 -3.3219 28.5887 119.5842 -56.4197 -85.3128 -0.0000 0.0000 -30.4572 76.1672 44.4093 70.6146 -7.1250 0.0000 -0.0000 139.9696 -71.5360 -153.4626 0.0000 -0.0000 0.0000 47.5044 8.8647 42.2617 -109.5885 58.4993 -76.8787 0.0000 -0.0000 -12.2210 -58.6906 33.7523 -42.4108 7.1250 -0.0000 -0.0000 -13.5602 20.9560 -17.8981
39.1599 14.0825 16.2321 365.9070 -54.6323 364.9370 0.0000 0.0000 0.0000 -3.1948 2.5223 -7.9723 2.2591 9.3861 27.0106 1.1198 -4.7557 -18.9853 4.3622 -12.6274 -37.9894 0.0000 0.0000 0.0000 -8.8068 -3.0392 -53.5421 -23.8496 -19.6409 101.3206 -0.4919 4.6049 -12.4793 -0.0752 1.7687 -4.8670 -0.9576 5.2393 8.3572 -2.5014 6.6446 -6.8650 -3.4014 3.1067 -11.9234 -3.3592 -8.8492 -14.1943 4.2974 -11.7247 7.8671 0.8435 -5.5640 5.1096 0.0000 0.0000 0.0000 -45.5054 -2.8051 30.0335 122.1662 -55.7045 -87.4550 -0.0000 0.0000 -26.8806 74.7861 42.5074 68.0758 -7.1250 0.0000 -0.0000 132.0827 -72.7678 -146.4195 0.0000 0.0000 0.0000 46.5991 9.6378 39.2570 -104.5308 59.1870 -72.5496 0.0000 -0.0000 -15.7678 -56.7261 33.1110 -39.7751 7.1250 -0.0000 -0.0000 -12.8093 18.9072 -16.6007
38.9426 14.1949 16.1662 365.4170 -54.4278 365.3850 0.0000 0.0000 0.0000 -2.6470 2.1637 -5.4172 1.7136 8.2421 23.4520 0.7627 -3.1495 -15.7348 4.2025 -12.4251 -37.2530 0.0000 0.0000 0.0000 -8.7716 -2.5175 -52.9673 -22.8383 -19.8057 98.3245 -0.3738 4.1552 -10.8735 -0.0554 1.5189 -4.1777 -0.8529 4.9162 7.8918 -2.1358 6.2657 -7.0034 -2.9572 2.9388 -11.8418 -3.7233 -9.2914 -14.0129 4.5899 -12.2981 7.9598 0.9346 -5.8367 5.1716 -0.0000 -0.0000 0.0000 -43.7105 -2.3978 31.5686 124.4897 -54.9898 -89.3665 -0.0000 0.0000 -23.2799 73.0647 40.2265 64.7563 -7.1250 0.0000 -0.0000 120.5926 -73.9813 -135.7506 -0.0000 -0.0000 0.0000 45.5529 10.6832 36.2300 -98.3522 59.7348 -67.2268 0.0000 -0.0000 -19.2809 -54.4560 32.0256 -36.5845 7.1250 -0.0000 -0.0000 -12.0393 16.2314 -15.2066
38.7191 14.3100 16.0959 364.9340 -54.1760 365.8590 0.0000 0.0000 0.0000 -2.0684 1.7275 -2.8640 1.2363 7.0509 19.8664 0.4438 -1.4622 -12.1612 3.9036 -12.0311 -35.8420 0.0000 0.0000 0.0000 -8.6505 -1.9835 -52.2341 -21.7389 -19.9273 95.0902 -0.2723 3.5527 -9.2758 -0.0382 1.2607 -3.4664 -0.8411 4.5850 7.3339 -1.7206 5.8674 -7.1288 -2.4006 2.7729 -11.7011 -4.0646 -9.7049 -13.8685 4.8234 -12.8317 8.0680 1.0049 -6.0922 5.2408 -0.0000 0.0000 0.0000 -41.9123 -2.1362 33.1752 126.5698 -54.2886 -91.0629 -0.0000 0.0000 -19.7906 70.9537 37.4856 60.4341 -7.1250 0.0000 -0.0000 104.0122 -74.6903 -119.8747 -0.0000 0.0000 0.0000 44.3856 12.0131 33.2028 -91.0317 59.9960 -60.8935 0.0000 -0.0000 -22.7193 -51.8586 30.3905 -32.7908 7.1250 -0.0000 -0.0000 -11.2377 12.8116 -13.6830
38.4898 14.4271 16.0210 364.4690 -53.8705 366.3470 0.0000 0.0000 0.0000 -1.4641 1.2216 -0.3246 0.8291 5.8092 16.2318 0.1864 0.5081 -8.3544 3.4834 -11.4392 -33.7759 0.0000 0.0000 0.0000 -8.4574 -1.4264 -51.3318 -20.5609 -19.9925 91.6401 -0.1899 2.8083 -7.7405 -0.0266 1.0537 -2.8966 -0.9098 4.2423 6.7092 -1.2785 5.4445 -7.2486 -1.7674 2.6028 -11.5183 -4.3586 -10.0801 -13.7485 5.0162 -13.3188 8.1833 1.0582 -6.3256 5.3112 -0.0000 -0.0000 0.0000 -40.0661 -2.0472 34.8479 128.4154 -53.6150 -92.5552 -0.0000 0.0000 -16.5414 68.4896 34.1880 54.9545 -7.1250 0.0000 -0.0000 82.8882 -73.9065 -99.2265 -0.0000 -0.0000 0.0000 43.1738 13.6195 30.1853 -82.7389 59.7998 -53.7159 0.0000 -0.0000 -26.0882 -48.9099 28.0952 -28.3706 7.1250 -0.0000 -0.0000 -10.3691 8.5399 -11.9775
38.2549 14.5452 15.9409 364.0320 -53.5031 366.8350 0.0000 0.0000 0.0000 -0.8354 0.6545 2.2251 0.4920 4.4974 12.4804 0.0047 2.9226 -4.4313 2.9391 -10.5959 -30.9287 0.0000 0.0000 0.0000 -8.2019 -0.8315 -50.2543 -19.3184 -19.9889 88.0068 -0.1267 1.9583 -6.3284 -0.0217 0.9502 -2.6119 -1.0482 3.8866 6.0532 -0.8334 4.9944 -7.3735 -1.0940 2.4242 -11.3212 -4.5812 -10.4132 -13.6421 5.1789 -13.7606 8.3111 1.0947 -6.5363 5.3809 0.0000 0.0000 0.0000 -38.1307 -2.1523 36.5868 130.0421 -52.9785 -93.8595 -0.0000 0.0000 -13.5946 65.7651 30.2740 48.2379 -7.1250 0.0000 -0.0000 77.2754 72.5309 58.8487 0.0000 0.0000 0.0000 41.9801 15.4877 27.1817 -73.8299 58.9886 -46.0438 0.0000 -0.0000 -29.4655 -45.6487 25.0549 -23.4216 7.1250 -0.0000 -0.0000 -9.3986 3.3898 -10.0711
38.0153 14.6632 15.8555 363.6240 -53.0741 367.3240 0.0000 0.0000 0.0000 -0.1113 0.9293 4.5577 0.2239 3.0462 8.4074 -0.0754 5.1209 -0.1680 2.2823 -9.4309 -27.1528 0.0000 0.0000 0.0000 -7.8907 -0.1817 -49.0145 -18.0303 -19.9067 84.2323 -0.0802 1.0936 -5.0780 -0.0221 0.9603 -2.6396 -1.2466 3.5276 5.3692 -0.4000 4.5317 -7.4988 -0.4050 2.2422 -11.1024 -4.7395 -10.7057 -13.5467 5.3413 -14.1601 8.4303 1.1250 -6.7242 5.4449 -0.0000 -0.0000 0.0000 -36.0978 -2.5063 38.3931 131.4573 -52.3906 -94.9850 -0.0000 0.0000 -10.9783 63.0051 25.7484 40.4570 -7.1250 0.0000 -0.0000 57.3233 68.5325 36.5315 -0.0000 -0.0000 0.0000 40.8233 17.5807 24.1277 -64.8388 57.4672 -38.3951 0.0000 -0.0000 -33.0662 -42.2023 21.4076 -18.3139 7.1250 -0.0000 -0.0000 -8.2693 -2.3416 -8.0094
37.7715 14.7793 15.7645 363.2550 -52.5813 367.8010 0.0000 0.0000 0.0000 0.7557 1.3902 7.6398 0.0243 1.0059 2.7651 -0.0562 8.3229 4.6229 1.5981 -7.9734 -22.6332 0.0000 0.0000 0.0000 -7.5319 0.5306 -47.6282 -16.7204 -19.7401 80.3709 -0.0477 0.2584 -4.0399 -0.0295 1.1090 -3.0488 -1.4902 3.1655 4.6785 0.0041 4.0575 -7.6260 0.2708 2.0549 -10.8726 -4.8401 -10.9550 -13.4682 5.5213 -14.5152 8.5539 1.1554 -6.8871 5.5096 0.0000 -0.0000 0.0000 -33.9650 -3.1152 40.2495 132.6843 -51.8538 -95.9536 -0.0000 0.0000 -8.6675 60.4529 20.7459 32.0009 -7.1250 0.0000 -0.0000 43.1126 62.1430 19.9211 0.0000 -0.0000 0.0000 39.7354 19.8793 20.9822 -56.2708 55.2314 -31.2573 0.0000 -0.0000 -37.0947 -38.6996 17.2352 -13.3533 7.1250 -0.0000 -0.0000 -6.9554 -8.4315 -5.9053
